<svg width="36" height="28" viewBox="0 0 36 28" fill="none" xmlns="http://www.w3.org/2000/svg">
<g filter="url(#filter0_d_493_1155)">
<path d="M29.28 12.0652C29.2507 12.0945 29.0747 12.3438 28.752 12.8132C28.4587 13.2825 28.048 13.8545 27.52 14.5292C26.992 15.2038 26.376 15.9372 25.672 16.7292C24.968 17.5212 24.1907 18.2545 23.34 18.9292C22.5187 19.6038 21.6387 20.1612 20.7 20.6012C19.7907 21.0412 18.8667 21.2612 17.928 21.2612C17.0187 21.2612 16.0947 21.0412 15.156 20.6012C14.2467 20.1612 13.3667 19.6038 12.516 18.9292C11.6654 18.2545 10.8734 17.5212 10.14 16.7292C9.4067 15.9372 8.76137 15.2038 8.20403 14.5292C7.67603 13.8545 7.2507 13.2825 6.92804 12.8132C6.60537 12.3438 6.44404 12.0945 6.44404 12.0652C6.09204 11.5665 5.87204 10.9945 5.78404 10.3492C5.69604 9.73318 5.7107 9.10251 5.82804 8.45718C5.9747 7.81185 6.22404 7.19585 6.57604 6.60918C6.95737 6.05185 7.44137 5.58251 8.02804 5.20118C9.28937 4.40918 10.492 4.17451 11.636 4.49718C12.78 4.84918 13.748 5.56785 14.54 6.65318C14.804 6.97585 15.0974 7.32785 15.42 7.70918C15.7134 8.03185 16.0654 8.39851 16.476 8.80918C16.8867 9.21985 17.3414 9.67451 17.84 10.1732C18.456 9.52785 19.028 8.91185 19.556 8.32518C20.084 7.76785 20.5387 7.26918 20.92 6.82918C21.36 6.30118 21.7707 5.83185 22.152 5.42118C22.68 4.86385 23.2814 4.46784 23.956 4.23318C24.5427 4.02784 25.232 3.96918 26.024 4.05718C26.816 4.14518 27.6814 4.59985 28.62 5.42118C29.06 5.80251 29.412 6.27185 29.676 6.82918C29.94 7.41585 30.1014 8.01718 30.16 8.63318C30.2187 9.24918 30.1747 9.86518 30.028 10.4812C29.8814 11.0972 29.632 11.6252 29.28 12.0652Z" fill="#F6F5F8" fill-opacity="0.6" shape-rendering="crispEdges"/>
<path d="M29.6331 12.425C29.6409 12.4144 29.6465 12.407 29.6502 12.4021L29.6532 12.3991L29.6705 12.3775C30.074 11.8731 30.3528 11.2758 30.5144 10.597C30.6735 9.92884 30.7218 9.25771 30.6578 8.58577L30.1605 8.63313L30.6578 8.58577C30.5937 7.9131 30.4176 7.25861 30.132 6.624L30.1321 6.62396L30.1279 6.61514C29.8362 5.99932 29.4434 5.47335 28.9484 5.04412C27.9734 4.1912 27.0151 3.66422 26.0793 3.56024C25.2335 3.46626 24.4659 3.52518 23.7918 3.76093C23.036 4.02382 22.3679 4.46635 21.7891 5.07731L21.789 5.07729L21.7856 5.08095C21.398 5.49846 20.9824 5.97346 20.539 6.50534C20.1644 6.93746 19.716 7.4293 19.1931 7.98131L19.1929 7.98119L19.1844 7.9907C18.762 8.46006 18.3108 8.94876 17.8308 9.45683L16.8296 8.45563C16.4256 8.05167 16.0814 7.69308 15.796 7.37939C15.4805 7.00654 15.1938 6.66246 14.9356 6.34707C14.0896 5.19199 13.0386 4.40561 11.7831 4.01929L11.7831 4.01916L11.7718 4.01595C10.4588 3.64562 9.11069 3.93098 7.76215 4.77773L7.76212 4.77768L7.75554 4.78196C7.11563 5.1979 6.5833 5.71311 6.16338 6.32684L6.15496 6.33914L6.14729 6.35193C5.76899 6.98244 5.49926 7.64768 5.34047 8.34637L5.33805 8.357L5.3361 8.36774C5.20978 9.06252 5.19309 9.7468 5.28884 10.4183C5.38431 11.1168 5.62066 11.7487 6.00201 12.3053C6.01495 12.332 6.02934 12.3578 6.04157 12.3789C6.06797 12.4245 6.10349 12.4813 6.14525 12.5458C6.2298 12.6765 6.35397 12.8607 6.51602 13.0964C6.84663 13.5773 7.27875 14.1582 7.81028 14.8373L7.81014 14.8374L7.81855 14.8476C8.38308 15.531 9.03483 16.2715 9.77316 17.0689C10.524 17.8798 11.3348 18.6305 12.2053 19.3209C13.0826 20.0167 13.9935 20.5941 14.9383 21.0513L14.9382 21.0513L14.9438 21.0539C15.9396 21.5207 16.9357 21.7612 17.928 21.7612C18.9468 21.7612 19.9439 21.522 20.915 21.0526C21.89 20.5953 22.8032 20.0168 23.6541 19.3183C24.5256 18.6268 25.323 17.8745 26.0457 17.0614C26.7551 16.2633 27.3781 15.5219 27.9138 14.8373C28.4441 14.1598 28.8644 13.5756 29.1702 13.0876C29.3282 12.8578 29.4494 12.6831 29.5345 12.5625C29.5778 12.5012 29.6104 12.4558 29.6331 12.425Z" stroke="#5C81F0" shape-rendering="crispEdges"/>
</g>
<defs>
<filter id="filter0_d_493_1155" x="0.727478" y="0.0175781" width="34.4577" height="27.2432" filterUnits="userSpaceOnUse" color-interpolation-filters="sRGB">
<feFlood flood-opacity="0" result="BackgroundImageFix"/>
<feColorMatrix in="SourceAlpha" type="matrix" values="0 0 0 0 0 0 0 0 0 0 0 0 0 0 0 0 0 0 127 0" result="hardAlpha"/>
<feMorphology radius="1" operator="dilate" in="SourceAlpha" result="effect1_dropShadow_493_1155"/>
<feOffset dy="1"/>
<feGaussianBlur stdDeviation="1.5"/>
<feComposite in2="hardAlpha" operator="out"/>
<feColorMatrix type="matrix" values="0 0 0 0 0 0 0 0 0 0.112357 0 0 0 0 0.17875 0 0 0 0.5 0"/>
<feBlend mode="normal" in2="BackgroundImageFix" result="effect1_dropShadow_493_1155"/>
<feBlend mode="normal" in="SourceGraphic" in2="effect1_dropShadow_493_1155" result="shape"/>
</filter>
</defs>
</svg>
