<svg width="36" height="28" viewBox="0 0 36 28" fill="none" xmlns="http://www.w3.org/2000/svg">
<g filter="url(#filter0_d_493_1156)">
<path d="M6.71996 13.9348C6.7493 13.9055 6.92529 13.6562 7.24796 13.1868C7.54129 12.7175 7.95196 12.1455 8.47996 11.4708C9.00796 10.7962 9.62396 10.0628 10.328 9.27082C11.032 8.47882 11.8093 7.74549 12.66 7.07082C13.4813 6.39615 14.3613 5.83882 15.3 5.39882C16.2093 4.95882 17.1333 4.73882 18.072 4.73882C18.9813 4.73882 19.9053 4.95882 20.844 5.39882C21.7533 5.83882 22.6333 6.39615 23.484 7.07082C24.3346 7.74549 25.1266 8.47882 25.86 9.27082C26.5933 10.0628 27.2386 10.7962 27.796 11.4708C28.324 12.1455 28.7493 12.7175 29.072 13.1868C29.3946 13.6562 29.556 13.9055 29.556 13.9348C29.908 14.4335 30.128 15.0055 30.216 15.6508C30.304 16.2668 30.2893 16.8975 30.172 17.5428C30.0253 18.1882 29.776 18.8042 29.424 19.3908C29.0426 19.9482 28.5586 20.4175 27.972 20.7988C26.7106 21.5908 25.508 21.8255 24.364 21.5028C23.22 21.1508 22.252 20.4322 21.46 19.3468C21.196 19.0242 20.9026 18.6722 20.58 18.2908C20.2866 17.9682 19.9346 17.6015 19.524 17.1908C19.1133 16.7802 18.6586 16.3255 18.16 15.8268C17.544 16.4722 16.972 17.0882 16.444 17.6748C15.916 18.2322 15.4613 18.7308 15.08 19.1708C14.64 19.6988 14.2293 20.1682 13.848 20.5788C13.32 21.1362 12.7186 21.5322 12.044 21.7668C11.4573 21.9722 10.768 22.0308 9.97596 21.9428C9.18396 21.8548 8.31863 21.4002 7.37996 20.5788C6.93996 20.1975 6.58796 19.7282 6.32396 19.1708C6.05996 18.5842 5.89863 17.9828 5.83996 17.3668C5.7813 16.7508 5.8253 16.1348 5.97196 15.5188C6.11863 14.9028 6.36796 14.3748 6.71996 13.9348Z" fill="#F6F5F8" fill-opacity="0.6" shape-rendering="crispEdges"/>
<path d="M6.36693 13.575C6.35912 13.5856 6.35351 13.593 6.34979 13.5979L6.34683 13.6009L6.32953 13.6225C5.92601 14.1269 5.64719 14.7242 5.48556 15.403C5.32648 16.0712 5.27822 16.7423 5.34221 17.4142L5.83947 17.3669L5.34221 17.4142C5.40628 18.0869 5.58243 18.7414 5.868 19.376L5.86792 19.376L5.87209 19.3849C6.1638 20.0007 6.55658 20.5266 7.05159 20.9559C8.02657 21.8088 8.98487 22.3358 9.92075 22.4398C10.7665 22.5337 11.5341 22.4748 12.2082 22.2391C12.964 21.9762 13.6321 21.5336 14.2109 20.9227L14.211 20.9227L14.2144 20.919C14.602 20.5015 15.0176 20.0265 15.461 19.4947C15.8356 19.0625 16.284 18.5707 16.8069 18.0187L16.8071 18.0188L16.8156 18.0093C17.238 17.5399 17.6892 17.0512 18.1692 16.5432L19.1704 17.5444C19.5744 17.9483 19.9186 18.3069 20.204 18.6206C20.5195 18.9935 20.8062 19.3375 21.0644 19.6529C21.9104 20.808 22.9614 21.5944 24.2169 21.9807L24.2169 21.9808L24.2282 21.984C25.5412 22.3544 26.8893 22.069 28.2378 21.2223L28.2379 21.2223L28.2445 21.218C28.8844 20.8021 29.4167 20.2869 29.8366 19.6732L29.845 19.6609L29.8527 19.6481C30.231 19.0176 30.5007 18.3523 30.6595 17.6536L30.6619 17.643L30.6639 17.6323C30.7902 16.9375 30.8069 16.2532 30.7112 15.5817C30.6157 14.8832 30.3793 14.2512 29.998 13.6947C29.9851 13.668 29.9707 13.6422 29.9584 13.6211C29.932 13.5755 29.8965 13.5187 29.8547 13.4542C29.7702 13.3235 29.646 13.1393 29.484 12.9036C29.1534 12.4227 28.7212 11.8418 28.1897 11.1627L28.1899 11.1626L28.1814 11.1524C27.6169 10.469 26.9652 9.72851 26.2268 8.93112C25.476 8.12025 24.6652 7.36953 23.7947 6.67907C22.9174 5.9833 22.0065 5.40586 21.0617 4.94874L21.0618 4.94871L21.0562 4.94609C20.0604 4.47932 19.0643 4.23882 18.072 4.23882C17.0532 4.23882 16.0561 4.47797 15.085 4.94736C14.11 5.40468 13.1968 5.9832 12.3459 6.68174C11.4744 7.37322 10.677 8.12552 9.95426 8.93864C9.24487 9.7367 8.62193 10.4781 8.08621 11.1627C7.55595 11.8402 7.13558 12.4244 6.82983 12.9124C6.67184 13.1422 6.55058 13.3169 6.46548 13.4375C6.4222 13.4988 6.38963 13.5442 6.36693 13.575Z" stroke="#5C81F0" shape-rendering="crispEdges"/>
</g>
<defs>
<filter id="filter0_d_493_1156" x="0.814819" y="0.739258" width="34.4577" height="27.2432" filterUnits="userSpaceOnUse" color-interpolation-filters="sRGB">
<feFlood flood-opacity="0" result="BackgroundImageFix"/>
<feColorMatrix in="SourceAlpha" type="matrix" values="0 0 0 0 0 0 0 0 0 0 0 0 0 0 0 0 0 0 127 0" result="hardAlpha"/>
<feMorphology radius="1" operator="dilate" in="SourceAlpha" result="effect1_dropShadow_493_1156"/>
<feOffset dy="1"/>
<feGaussianBlur stdDeviation="1.5"/>
<feComposite in2="hardAlpha" operator="out"/>
<feColorMatrix type="matrix" values="0 0 0 0 0 0 0 0 0 0.112357 0 0 0 0 0.17875 0 0 0 0.5 0"/>
<feBlend mode="normal" in2="BackgroundImageFix" result="effect1_dropShadow_493_1156"/>
<feBlend mode="normal" in="SourceGraphic" in2="effect1_dropShadow_493_1156" result="shape"/>
</filter>
</defs>
</svg>
