<svg width="26" height="34" viewBox="0 0 26 34" fill="none" xmlns="http://www.w3.org/2000/svg">
<g filter="url(#filter0_d_4_1224)">
<g filter="url(#filter1_d_4_1224)">
<path d="M12.4006 3.96222C12.4312 3.9934 12.6915 4.1805 13.1814 4.52352C13.6713 4.83535 14.2684 5.27191 14.9727 5.8332C15.677 6.3945 16.4425 7.04934 17.2692 7.79774C18.0959 8.54613 18.8614 9.37248 19.5657 10.2768C20.27 11.1499 20.8517 12.0854 21.311 13.0833C21.7703 14.0499 22 15.0322 22 16.0301C22 16.9967 21.7703 17.979 21.311 18.9769C20.8517 19.9435 20.27 20.879 19.5657 21.7833C18.8614 22.6877 18.0959 23.5296 17.2692 24.3092C16.4425 25.0888 15.677 25.7748 14.9727 26.3673C14.2684 26.9286 13.6713 27.3807 13.1814 27.7237C12.6915 28.0667 12.4312 28.2382 12.4006 28.2382C11.8801 28.6124 11.283 28.8463 10.6093 28.9399C9.96632 29.0334 9.30799 29.0178 8.63435 28.8931C7.9607 28.7372 7.31768 28.4721 6.70528 28.0979C6.1235 27.6925 5.63358 27.178 5.23552 26.5544C4.40878 25.2135 4.16382 23.935 4.50064 22.7188C4.86808 21.5027 5.61827 20.4737 6.75121 19.6317C7.08803 19.3511 7.45547 19.0392 7.85353 18.6962C8.19035 18.3844 8.57311 18.0102 9.00179 17.5736C9.43047 17.1371 9.90508 16.6537 10.4256 16.1236C9.75198 15.4688 9.10896 14.8607 8.49656 14.2994C7.91477 13.7381 7.39423 13.2548 6.93493 12.8494C6.38377 12.3817 5.89385 11.9451 5.46517 11.5397C4.88339 10.9784 4.47002 10.3392 4.22506 9.62195C4.01072 8.99829 3.94948 8.26548 4.04134 7.42354C4.1332 6.5816 4.60781 5.6617 5.46517 4.66384C5.86323 4.19609 6.35315 3.8219 6.93493 3.54125C7.54733 3.2606 8.17504 3.08909 8.81807 3.02673C9.46109 2.96436 10.1041 3.01114 10.7471 3.16705C11.3902 3.32297 11.9413 3.58802 12.4006 3.96222Z" fill="#F6F5F8" fill-opacity="0.6" shape-rendering="crispEdges"/>
</g>
</g>
<defs>
<filter id="filter0_d_4_1224" x="0" y="0" width="26" height="34" filterUnits="userSpaceOnUse" color-interpolation-filters="sRGB">
<feFlood flood-opacity="0" result="BackgroundImageFix"/>
<feColorMatrix in="SourceAlpha" type="matrix" values="0 0 0 0 0 0 0 0 0 0 0 0 0 0 0 0 0 0 127 0" result="hardAlpha"/>
<feMorphology radius="1" operator="dilate" in="SourceAlpha" result="effect1_dropShadow_4_1224"/>
<feOffset dy="1"/>
<feGaussianBlur stdDeviation="1.5"/>
<feComposite in2="hardAlpha" operator="out"/>
<feColorMatrix type="matrix" values="0 0 0 0 0 0 0 0 0 0.112357 0 0 0 0 0.17875 0 0 0 0.3 0"/>
<feBlend mode="normal" in2="BackgroundImageFix" result="effect1_dropShadow_4_1224"/>
<feBlend mode="normal" in="SourceGraphic" in2="effect1_dropShadow_4_1224" result="shape"/>
</filter>
<filter id="filter1_d_4_1224" x="0" y="0" width="26" height="34" filterUnits="userSpaceOnUse" color-interpolation-filters="sRGB">
<feFlood flood-opacity="0" result="BackgroundImageFix"/>
<feColorMatrix in="SourceAlpha" type="matrix" values="0 0 0 0 0 0 0 0 0 0 0 0 0 0 0 0 0 0 127 0" result="hardAlpha"/>
<feMorphology radius="1" operator="dilate" in="SourceAlpha" result="effect1_dropShadow_4_1224"/>
<feOffset dy="1"/>
<feGaussianBlur stdDeviation="1.5"/>
<feComposite in2="hardAlpha" operator="out"/>
<feColorMatrix type="matrix" values="0 0 0 0 0 0 0 0 0 0.112357 0 0 0 0 0.17875 0 0 0 0.3 0"/>
<feBlend mode="normal" in2="BackgroundImageFix" result="effect1_dropShadow_4_1224"/>
<feBlend mode="normal" in="SourceGraphic" in2="effect1_dropShadow_4_1224" result="shape"/>
</filter>
</defs>
</svg>
