<svg width="30" height="38" viewBox="0 0 30 38" fill="none" xmlns="http://www.w3.org/2000/svg">
<g filter="url(#filter0_d_486_1132)">
<path d="M15.8216 31.4876C15.7869 31.453 15.4922 31.2623 14.9376 30.9156C14.3829 30.5343 13.7069 30.0316 12.9096 29.4076C12.1122 28.7836 11.2456 28.0556 10.3096 27.2236C9.37355 26.3916 8.50689 25.4903 7.70955 24.5196C6.91222 23.5143 6.25355 22.4743 5.73355 21.3996C5.21355 20.325 4.95355 19.2156 4.95355 18.0716C4.95355 16.997 5.21355 15.9223 5.73355 14.8476C6.25355 13.7383 6.91222 12.681 7.70955 11.6756C8.50689 10.6703 9.37355 9.7343 10.3096 8.86763C11.2456 8.00097 12.1122 7.25563 12.9096 6.63163C13.7069 5.97297 14.3829 5.4703 14.9376 5.12363C15.4922 4.7423 15.7869 4.5343 15.8216 4.49963C16.3762 4.08363 17.0349 3.82363 17.7976 3.71963C18.5602 3.61563 19.3229 3.6503 20.0856 3.82363C20.8482 3.9623 21.5589 4.25697 22.2176 4.70763C22.9109 5.12363 23.4829 5.6783 23.9336 6.37163C24.8696 7.8623 25.1296 9.28363 24.7136 10.6356C24.3322 11.9876 23.5002 13.1316 22.2176 14.0676C21.8362 14.3796 21.4202 14.7263 20.9696 15.1076C20.5882 15.4543 20.1376 15.8703 19.6176 16.3556C19.1322 16.841 18.6122 17.3783 18.0576 17.9676C18.8202 18.7303 19.5309 19.4236 20.1896 20.0476C20.8829 20.637 21.4896 21.157 22.0096 21.6076C22.6336 22.1276 23.1882 22.613 23.6736 23.0636C24.3322 23.6876 24.8002 24.3983 25.0776 25.1956C25.3202 25.889 25.3722 26.7036 25.2336 27.6396C25.1296 28.5756 24.6096 29.5983 23.6736 30.7076C23.2229 31.2276 22.6509 31.6436 21.9576 31.9556C21.2989 32.2676 20.6056 32.4583 19.8776 32.5276C19.1496 32.597 18.4216 32.545 17.6936 32.3716C16.9656 32.1983 16.3416 31.9036 15.8216 31.4876Z" fill="url(#paint0_linear_486_1132)"/>
</g>
<defs>
<filter id="filter0_d_486_1132" x="0.953552" y="0.661133" width="28.3556" height="36.8965" filterUnits="userSpaceOnUse" color-interpolation-filters="sRGB">
<feFlood flood-opacity="0" result="BackgroundImageFix"/>
<feColorMatrix in="SourceAlpha" type="matrix" values="0 0 0 0 0 0 0 0 0 0 0 0 0 0 0 0 0 0 127 0" result="hardAlpha"/>
<feMorphology radius="1" operator="dilate" in="SourceAlpha" result="effect1_dropShadow_486_1132"/>
<feOffset dy="1"/>
<feGaussianBlur stdDeviation="1.5"/>
<feComposite in2="hardAlpha" operator="out"/>
<feColorMatrix type="matrix" values="0 0 0 0 0 0 0 0 0 0.112357 0 0 0 0 0.17875 0 0 0 0.5 0"/>
<feBlend mode="normal" in2="BackgroundImageFix" result="effect1_dropShadow_486_1132"/>
<feBlend mode="normal" in="SourceGraphic" in2="effect1_dropShadow_486_1132" result="shape"/>
</filter>
<linearGradient id="paint0_linear_486_1132" x1="15.1314" y1="-18.011" x2="15.1314" y2="32.5573" gradientUnits="userSpaceOnUse">
<stop offset="0.348958" stop-color="#FDBF22"/>
<stop offset="1" stop-color="#8073EC"/>
</linearGradient>
</defs>
</svg>
