<svg width="26" height="34" viewBox="0 0 26 34" fill="none" xmlns="http://www.w3.org/2000/svg">
<g filter="url(#filter0_d_4_1223)">
<g filter="url(#filter1_d_4_1223)">
<path d="M13.6103 28.0375C13.5797 28.0063 13.3191 27.8348 12.8286 27.5228C12.3381 27.1797 11.7404 26.7274 11.0353 26.166C10.3302 25.6045 9.56386 24.9495 8.73618 24.2009C7.9085 23.4523 7.14213 22.6413 6.43706 21.7679C5.732 20.8633 5.14956 19.9276 4.68974 18.9606C4.22991 17.9936 4 16.9955 4 15.9662C4 14.9992 4.22991 14.0323 4.68974 13.0653C5.14956 12.0671 5.732 11.1158 6.43706 10.2112C7.14213 9.30665 7.9085 8.46446 8.73618 7.68466C9.56386 6.90486 10.3302 6.23423 11.0353 5.67277C11.7404 5.08012 12.3381 4.62784 12.8286 4.31592C13.3191 3.9728 13.5797 3.78565 13.6103 3.75446C14.1008 3.38015 14.6832 3.14621 15.3576 3.05264C16.032 2.95906 16.7065 2.99025 17.3809 3.14621C18.0553 3.27098 18.6837 3.53611 19.2661 3.94161C19.8792 4.31592 20.385 4.81499 20.7836 5.43883C21.6112 6.78009 21.8412 8.05897 21.4733 9.27546C21.1361 10.4919 20.4004 11.5213 19.2661 12.3635C18.9289 12.6442 18.5611 12.9561 18.1626 13.2992C17.8254 13.6112 17.4268 13.9855 16.967 14.4222C16.5379 14.8588 16.078 15.3423 15.5876 15.8726C16.262 16.5588 16.8904 17.1827 17.4728 17.7441C18.0859 18.2744 18.6224 18.7423 19.0822 19.1478C19.634 19.6156 20.1245 20.0523 20.5536 20.4578C21.1361 21.0193 21.5499 21.6587 21.7952 22.3761C22.0098 23 22.0557 23.733 21.9331 24.5752C21.8412 25.4174 21.3813 26.3375 20.5536 27.3357C20.1551 27.8036 19.6493 28.1779 19.0362 28.4586C18.4538 28.7393 17.8407 28.9109 17.1969 28.9733C16.5532 29.0356 15.9094 28.9889 15.2657 28.8329C14.6219 28.6769 14.0701 28.4118 13.6103 28.0375Z" fill="#F6F5F8" fill-opacity="0.6" shape-rendering="crispEdges"/>
</g>
</g>
<defs>
<filter id="filter0_d_4_1223" x="0" y="0" width="26" height="34" filterUnits="userSpaceOnUse" color-interpolation-filters="sRGB">
<feFlood flood-opacity="0" result="BackgroundImageFix"/>
<feColorMatrix in="SourceAlpha" type="matrix" values="0 0 0 0 0 0 0 0 0 0 0 0 0 0 0 0 0 0 127 0" result="hardAlpha"/>
<feMorphology radius="1" operator="dilate" in="SourceAlpha" result="effect1_dropShadow_4_1223"/>
<feOffset dy="1"/>
<feGaussianBlur stdDeviation="1.5"/>
<feComposite in2="hardAlpha" operator="out"/>
<feColorMatrix type="matrix" values="0 0 0 0 0 0 0 0 0 0.112357 0 0 0 0 0.17875 0 0 0 0.3 0"/>
<feBlend mode="normal" in2="BackgroundImageFix" result="effect1_dropShadow_4_1223"/>
<feBlend mode="normal" in="SourceGraphic" in2="effect1_dropShadow_4_1223" result="shape"/>
</filter>
<filter id="filter1_d_4_1223" x="0" y="0" width="26" height="34" filterUnits="userSpaceOnUse" color-interpolation-filters="sRGB">
<feFlood flood-opacity="0" result="BackgroundImageFix"/>
<feColorMatrix in="SourceAlpha" type="matrix" values="0 0 0 0 0 0 0 0 0 0 0 0 0 0 0 0 0 0 127 0" result="hardAlpha"/>
<feMorphology radius="1" operator="dilate" in="SourceAlpha" result="effect1_dropShadow_4_1223"/>
<feOffset dy="1"/>
<feGaussianBlur stdDeviation="1.5"/>
<feComposite in2="hardAlpha" operator="out"/>
<feColorMatrix type="matrix" values="0 0 0 0 0 0 0 0 0 0.112357 0 0 0 0 0.17875 0 0 0 0.3 0"/>
<feBlend mode="normal" in2="BackgroundImageFix" result="effect1_dropShadow_4_1223"/>
<feBlend mode="normal" in="SourceGraphic" in2="effect1_dropShadow_4_1223" result="shape"/>
</filter>
</defs>
</svg>
