<svg width="29" height="38" viewBox="0 0 29 38" fill="none" xmlns="http://www.w3.org/2000/svg">
<g filter="url(#filter0_d_486_1133)">
<path d="M13.9859 4.76015C14.0206 4.79481 14.3152 5.00281 14.8699 5.38414C15.4246 5.73081 16.1006 6.21614 16.8979 6.84014C17.6952 7.46414 18.5619 8.19214 19.4979 9.02414C20.4339 9.85615 21.3006 10.7748 22.0979 11.7801C22.8952 12.7508 23.5539 13.7908 24.0739 14.9001C24.5939 15.9748 24.8539 17.0668 24.8539 18.1761C24.8539 19.2508 24.5939 20.3428 24.0739 21.4521C23.5539 22.5268 22.8952 23.5668 22.0979 24.5721C21.3006 25.5775 20.4339 26.5135 19.4979 27.3801C18.5619 28.2468 17.6952 29.0095 16.8979 29.6681C16.1006 30.2921 15.4246 30.7948 14.8699 31.1761C14.3152 31.5575 14.0206 31.7481 13.9859 31.7481C13.3966 32.1641 12.7206 32.4241 11.9579 32.5281C11.2299 32.6321 10.4846 32.6148 9.7219 32.4761C8.95923 32.3028 8.23123 32.0081 7.5379 31.5921C6.87923 31.1415 6.32456 30.5695 5.8739 29.8761C4.9379 28.3855 4.66056 26.9641 5.0419 25.6121C5.4579 24.2601 6.30723 23.1161 7.5899 22.1801C7.97123 21.8681 8.38723 21.5215 8.8379 21.1401C9.21923 20.7935 9.65256 20.3775 10.1379 19.8921C10.6232 19.4068 11.1606 18.8695 11.7499 18.2801C10.9872 17.5521 10.2592 16.8761 9.5659 16.2521C8.90723 15.6281 8.3179 15.0908 7.7979 14.6401C7.1739 14.1201 6.61923 13.6348 6.1339 13.1841C5.47523 12.5601 5.00723 11.8495 4.7299 11.0521C4.48723 10.3588 4.4179 9.54414 4.5219 8.60815C4.6259 7.67215 5.16323 6.64948 6.1339 5.54014C6.58456 5.02015 7.13923 4.60415 7.7979 4.29215C8.49123 3.98015 9.2019 3.78948 9.9299 3.72014C10.6579 3.65081 11.3859 3.70281 12.1139 3.87615C12.8419 4.04948 13.4659 4.34415 13.9859 4.76015Z" fill="url(#paint0_linear_486_1133)"/>
</g>
<defs>
<filter id="filter0_d_486_1133" x="0.475098" y="0.69043" width="28.3788" height="36.9043" filterUnits="userSpaceOnUse" color-interpolation-filters="sRGB">
<feFlood flood-opacity="0" result="BackgroundImageFix"/>
<feColorMatrix in="SourceAlpha" type="matrix" values="0 0 0 0 0 0 0 0 0 0 0 0 0 0 0 0 0 0 127 0" result="hardAlpha"/>
<feMorphology radius="1" operator="dilate" in="SourceAlpha" result="effect1_dropShadow_486_1133"/>
<feOffset dy="1"/>
<feGaussianBlur stdDeviation="1.5"/>
<feComposite in2="hardAlpha" operator="out"/>
<feColorMatrix type="matrix" values="0 0 0 0 0 0 0 0 0 0.112357 0 0 0 0 0.17875 0 0 0 0.5 0"/>
<feBlend mode="normal" in2="BackgroundImageFix" result="effect1_dropShadow_486_1133"/>
<feBlend mode="normal" in="SourceGraphic" in2="effect1_dropShadow_486_1133" result="shape"/>
</filter>
<linearGradient id="paint0_linear_486_1133" x1="14.6645" y1="-17.988" x2="14.6645" y2="32.595" gradientUnits="userSpaceOnUse">
<stop offset="0.348958" stop-color="#FDBF22"/>
<stop offset="1" stop-color="#8073EC"/>
</linearGradient>
</defs>
</svg>
