<svg width="40" height="40" viewBox="0 0 40 40" fill="none" xmlns="http://www.w3.org/2000/svg">
<g filter="url(#filter0_d_579_43)">
<path d="M30.5715 21.8238C30.6334 21.125 30.7881 20.606 31.0356 20.2666C31.2625 19.9072 31.5101 19.6477 31.7782 19.488C32.0876 19.3083 32.4383 19.2284 32.8302 19.2484C33.2221 19.2484 33.6037 19.3382 33.975 19.5179C34.2844 19.6776 34.5834 19.9372 34.8722 20.2965C35.1816 20.6359 35.4085 21.155 35.5529 21.8537C35.9036 23.6704 36.048 25.2875 35.9861 26.705C35.9448 28.1224 35.8314 29.2504 35.6457 30.0889C35.522 30.6678 35.326 31.1769 35.0579 31.6161C34.8103 32.0353 34.5113 32.4047 34.1606 32.7241C33.8306 33.0435 33.4696 33.323 33.0777 33.5626C32.6858 33.7822 32.2939 33.9619 31.902 34.1016C30.9944 34.461 30.0043 34.6706 28.9317 34.7305C28.4779 34.7904 27.8694 34.8403 27.1062 34.8802C26.3224 34.9201 25.4561 34.9501 24.5072 34.9701C23.5584 34.99 22.558 35 21.506 35C20.4541 35 19.4124 35 18.3811 35C15.9677 34.98 13.3894 34.9401 10.646 34.8802C10.2128 34.9201 9.76934 34.9102 9.31555 34.8503C8.92364 34.8103 8.49047 34.7205 8.01605 34.5808C7.54163 34.441 7.06721 34.2214 6.5928 33.9219C6.44841 33.8621 6.28339 33.7423 6.09775 33.5626C5.91211 33.3829 5.73678 33.1733 5.57177 32.9337C5.38612 32.6942 5.22111 32.4446 5.07672 32.1851C4.91171 31.9255 4.79826 31.686 4.73638 31.4664C4.53011 30.8275 4.3651 30.0889 4.24133 29.2504C4.11757 28.3919 4.04538 27.5035 4.02475 26.5852C3.9835 25.6668 3.99381 24.7585 4.05569 23.8601C4.11757 22.9617 4.23102 22.1332 4.39604 21.3746C4.54042 20.7357 4.73638 20.2566 4.9839 19.9372C5.23142 19.5978 5.46863 19.3582 5.69553 19.2185C5.96368 19.0588 6.25245 18.9889 6.56186 19.0088C6.91251 19.0088 7.23223 19.0987 7.52101 19.2784C7.78916 19.4381 8.04699 19.6876 8.29451 20.027C8.54204 20.3664 8.71737 20.8755 8.8205 21.5543C8.92363 22.233 9.00614 23.0815 9.06803 24.0997C9.1299 25.1178 9.19178 26.0861 9.25367 27.0044C9.48056 26.9645 9.74871 26.9445 10.0581 26.9445C10.3469 26.9246 10.6357 26.8946 10.9244 26.8547C11.8733 26.7948 12.9665 26.7549 14.2041 26.7349C15.4417 26.695 16.7206 26.675 18.0407 26.675C19.3608 26.675 20.6913 26.695 22.032 26.7349C23.3521 26.7549 24.5794 26.7848 25.7139 26.8247C26.8484 26.8447 27.8488 26.8747 28.7151 26.9146C29.5608 26.9545 30.1796 26.9845 30.5715 27.0044C30.5303 26.5652 30.5096 26.0861 30.5096 25.567C30.489 25.0479 30.489 24.5488 30.5096 24.0697C30.5096 23.5906 30.5199 23.1514 30.5406 22.7521C30.5406 22.3528 30.5509 22.0434 30.5715 21.8238Z" fill="#F6F5F8"/>
<path d="M11.9411 9.25871C11.9617 9.23875 12.0854 9.06905 12.3123 8.74963C12.5186 8.43021 12.8074 8.04091 13.1787 7.58174C13.5499 7.12257 13.9831 6.62346 14.4782 6.08444C14.9732 5.54541 15.5198 5.04631 16.118 4.58714C16.6955 4.12797 17.3143 3.74865 17.9744 3.44919C18.6138 3.14973 19.2636 3 19.9236 3C20.5631 3 21.2128 3.14973 21.8729 3.44919C22.5123 3.74865 23.1311 4.12797 23.7293 4.58714C24.3275 5.04631 24.8844 5.54541 25.4001 6.08444C25.9157 6.62346 26.3695 7.12257 26.7614 7.58174C27.1327 8.04091 27.4318 8.43021 27.6587 8.74963C27.8856 9.06905 27.999 9.23875 27.999 9.25871C28.2466 9.5981 28.4013 9.9874 28.4632 10.4266C28.525 10.8458 28.5147 11.2751 28.4322 11.7143C28.3291 12.1535 28.1538 12.5727 27.9062 12.972C27.6381 13.3513 27.2977 13.6708 26.8852 13.9303C25.9982 14.4693 25.1525 14.629 24.3481 14.4094C23.5437 14.1699 22.863 13.6807 22.306 12.9421C22.1204 12.7225 21.9141 12.4829 21.6872 12.2234C21.481 12.0038 21.2334 11.7542 20.9447 11.4747C20.6559 11.1952 20.3362 10.8858 19.9855 10.5464C19.5524 10.9856 19.1501 11.4048 18.7789 11.8041C18.4076 12.1834 18.0879 12.5228 17.8197 12.8223C17.5103 13.1816 17.2215 13.5011 16.9534 13.7806C16.5821 14.1599 16.1592 14.4294 15.6848 14.5891C15.2723 14.7288 14.7876 14.7688 14.2306 14.7089C13.6737 14.649 13.0652 14.3395 12.4052 13.7806C12.0958 13.521 11.8482 13.2016 11.6626 12.8223C11.4769 12.423 11.3635 12.0137 11.3222 11.5945C11.281 11.1753 11.3119 10.756 11.4151 10.3368C11.5182 9.91752 11.6935 9.55817 11.9411 9.25871Z" fill="#F6F5F8"/>
<path d="M17.7991 12.0728C17.9226 11.4014 18.1009 10.878 18.3341 10.5028C18.5673 10.1276 18.8005 9.86103 19.0337 9.70305C19.308 9.50557 19.5961 9.39695 19.8979 9.3772C20.2408 9.3377 20.5563 9.3772 20.8444 9.49569C21.105 9.59443 21.3588 9.80178 21.6057 10.1177C21.8526 10.414 22.0378 10.878 22.1613 11.51C22.4356 12.9713 22.5728 14.3339 22.5728 15.5978C22.5728 16.8617 22.4973 18.1947 22.3465 19.5968C22.2779 20.288 22.127 20.831 21.8938 21.226C21.6606 21.6012 21.4205 21.8678 21.1736 22.0258C20.8855 22.243 20.57 22.3516 20.2271 22.3516C19.8705 22.3911 19.5344 22.322 19.2189 22.1443C18.9445 21.9863 18.677 21.7296 18.4164 21.3741C18.1558 20.9989 17.9637 20.4163 17.8403 19.6264C17.6894 18.6193 17.6071 17.6615 17.5934 16.7531C17.5659 15.8447 17.5659 15.0449 17.5934 14.3537C17.6345 13.544 17.7031 12.7837 17.7991 12.0728Z" fill="#F6F5F8"/>
</g>
<defs>
<filter id="filter0_d_579_43" x="0" y="0" width="40" height="40" filterUnits="userSpaceOnUse" color-interpolation-filters="sRGB">
<feFlood flood-opacity="0" result="BackgroundImageFix"/>
<feColorMatrix in="SourceAlpha" type="matrix" values="0 0 0 0 0 0 0 0 0 0 0 0 0 0 0 0 0 0 127 0" result="hardAlpha"/>
<feMorphology radius="1" operator="dilate" in="SourceAlpha" result="effect1_dropShadow_579_43"/>
<feOffset dy="1"/>
<feGaussianBlur stdDeviation="1.5"/>
<feComposite in2="hardAlpha" operator="out"/>
<feColorMatrix type="matrix" values="0 0 0 0 0 0 0 0 0 0.112357 0 0 0 0 0.17875 0 0 0 0.5 0"/>
<feBlend mode="normal" in2="BackgroundImageFix" result="effect1_dropShadow_579_43"/>
<feBlend mode="normal" in="SourceGraphic" in2="effect1_dropShadow_579_43" result="shape"/>
</filter>
</defs>
</svg>
