<svg width="24" height="24" viewBox="0 0 24 24" fill="none" xmlns="http://www.w3.org/2000/svg">
<circle cx="12" cy="12" r="12" fill="#001D2E" fill-opacity="0.7"/>
<path d="M12.1612 16.5279V18.8585M12.1612 16.5279C8.43223 16.5279 7.5 13.4205 7.5 11.8667M12.1612 16.5279C15.8901 16.5279 16.8223 13.4205 16.8223 11.8667M12.1612 18.8585H14.4917M12.1612 18.8585H9.83058M12.1612 14.1973C10.874 14.1973 9.83058 13.1539 9.83058 11.8667V7.20558C9.83058 5.91844 10.874 4.875 12.1612 4.875C13.4483 4.875 14.4917 5.91844 14.4917 7.20558V11.8667C14.4917 13.1539 13.4483 14.1973 12.1612 14.1973Z" stroke="url(#paint0_linear_19_738)" stroke-width="2" stroke-linecap="round" stroke-linejoin="round"/>
<defs>
<linearGradient id="paint0_linear_19_738" x1="12.1612" y1="4.875" x2="12.1612" y2="18.8585" gradientUnits="userSpaceOnUse">
<stop stop-color="#FDBF22"/>
<stop offset="0.9999" stop-color="#05B98F"/>
<stop offset="1" stop-color="#05B98F"/>
</linearGradient>
</defs>
</svg>
