<svg width="42" height="39" viewBox="0 0 42 39" fill="none" xmlns="http://www.w3.org/2000/svg">
<path d="M21.1387 7.58833C22.7021 6.02747 25.2368 6.02747 26.8001 7.58832L35.4476 16.2221C37.0109 17.783 37.0109 20.3136 35.4476 21.8745L22.0305 35.2703C20.4671 36.8311 17.9325 36.8311 16.3691 35.2703L7.72163 26.6365C6.15829 25.0756 6.15829 22.545 7.72163 20.9841L21.1387 7.58833Z" stroke="#F6F5F8" stroke-width="2"/>
<circle r="3.36995" transform="matrix(0.707668 0.706545 -0.707668 0.706545 23.9694 19.0482)" stroke="#F6F5F8" stroke-width="2"/>
<path d="M12.0453 7.14297L23.9694 19.0481" stroke="#F6F5F8" stroke-width="2" stroke-linecap="round" stroke-linejoin="round"/>
<path d="M35.1124 24.0921C35.1124 22.0717 36.7987 19.883 37.6419 19.0412C38.485 19.883 40.1713 22.0717 40.1713 24.0921C40.1713 26.6175 38.3533 26.6175 37.6419 26.6175C36.9305 26.6175 35.1124 26.6175 35.1124 24.0921Z" stroke="#F6F5F8" stroke-width="2" stroke-linecap="round" stroke-linejoin="round"/>
</svg>
