<svg width="786" height="560" viewBox="0 0 786 560" fill="none" xmlns="http://www.w3.org/2000/svg">
<g filter="url(#filter0_d_33_2080)">
<rect x="19" y="39" width="756" height="504" rx="30" fill="#A8B2C2"/>
</g>
<g filter="url(#filter1_d_33_2080)">
<rect x="11" y="31" width="756" height="504" rx="30" fill="#F6F5F8"/>
</g>
<circle cx="53" cy="51" r="7.5" fill="url(#paint0_radial_33_2080)" stroke="#001D2E"/>
<circle cx="85" cy="51" r="7.5" fill="url(#paint1_radial_33_2080)" stroke="#001D2E"/>
<circle cx="117" cy="51" r="7.5" fill="url(#paint2_radial_33_2080)" stroke="#001D2E"/>
<circle cx="149" cy="51" r="7.5" fill="url(#paint3_radial_33_2080)" stroke="#001D2E"/>
<circle cx="181" cy="51" r="7.5" fill="url(#paint4_radial_33_2080)" stroke="#001D2E"/>
<circle cx="213" cy="51" r="7.5" fill="url(#paint5_radial_33_2080)" stroke="#001D2E"/>
<circle cx="245" cy="51" r="7.5" fill="url(#paint6_radial_33_2080)" stroke="#001D2E"/>
<circle cx="277" cy="51" r="7.5" fill="url(#paint7_radial_33_2080)" stroke="#001D2E"/>
<circle cx="309" cy="51" r="7.5" fill="url(#paint8_radial_33_2080)" stroke="#001D2E"/>
<circle cx="341" cy="51" r="7.5" fill="url(#paint9_radial_33_2080)" stroke="#001D2E"/>
<circle cx="373" cy="51" r="7.5" fill="url(#paint10_radial_33_2080)" stroke="#001D2E"/>
<circle cx="405" cy="51" r="7.5" fill="url(#paint11_radial_33_2080)" stroke="#001D2E"/>
<circle cx="437" cy="51" r="7.5" fill="url(#paint12_radial_33_2080)" stroke="#001D2E"/>
<circle cx="469" cy="51" r="7.5" fill="url(#paint13_radial_33_2080)" stroke="#001D2E"/>
<circle cx="501" cy="51" r="7.5" fill="url(#paint14_radial_33_2080)" stroke="#001D2E"/>
<circle cx="533" cy="51" r="7.5" fill="url(#paint15_radial_33_2080)" stroke="#001D2E"/>
<circle cx="565" cy="51" r="7.5" fill="url(#paint16_radial_33_2080)" stroke="#001D2E"/>
<circle cx="597" cy="51" r="7.5" fill="url(#paint17_radial_33_2080)" stroke="#001D2E"/>
<circle cx="629" cy="51" r="7.5" fill="url(#paint18_radial_33_2080)" stroke="#001D2E"/>
<circle cx="661" cy="51" r="7.5" fill="url(#paint19_radial_33_2080)" stroke="#001D2E"/>
<circle cx="693" cy="51" r="7.5" fill="url(#paint20_radial_33_2080)" stroke="#001D2E"/>
<circle cx="725" cy="51" r="7.5" fill="url(#paint21_radial_33_2080)" stroke="#001D2E"/>
<path d="M72 28C72 14.7452 64.8366 4 56 4C47.1634 4 40 14.7452 40 28C40 41.2548 47.1634 52 56 52" stroke="url(#paint22_radial_33_2080)" stroke-width="8" stroke-linecap="round"/>
<path d="M104 28C104 14.7452 96.8366 4 88 4C79.1634 4 72 14.7452 72 28C72 41.2548 79.1634 52 88 52" stroke="url(#paint23_radial_33_2080)" stroke-width="8" stroke-linecap="round"/>
<path d="M136 28C136 14.7452 128.837 4 120 4C111.163 4 104 14.7452 104 28C104 41.2548 111.163 52 120 52" stroke="url(#paint24_radial_33_2080)" stroke-width="8" stroke-linecap="round"/>
<path d="M168 28C168 14.7452 160.837 4 152 4C143.163 4 136 14.7452 136 28C136 41.2548 143.163 52 152 52" stroke="url(#paint25_radial_33_2080)" stroke-width="8" stroke-linecap="round"/>
<path d="M200 28C200 14.7452 192.837 4 184 4C175.163 4 168 14.7452 168 28C168 41.2548 175.163 52 184 52" stroke="url(#paint26_radial_33_2080)" stroke-width="8" stroke-linecap="round"/>
<path d="M232 28C232 14.7452 224.837 4 216 4C207.163 4 200 14.7452 200 28C200 41.2548 207.163 52 216 52" stroke="url(#paint27_radial_33_2080)" stroke-width="8" stroke-linecap="round"/>
<path d="M264 28C264 14.7452 256.837 4 248 4C239.163 4 232 14.7452 232 28C232 41.2548 239.163 52 248 52" stroke="url(#paint28_radial_33_2080)" stroke-width="8" stroke-linecap="round"/>
<path d="M296 28C296 14.7452 288.837 4 280 4C271.163 4 264 14.7452 264 28C264 41.2548 271.163 52 280 52" stroke="url(#paint29_radial_33_2080)" stroke-width="8" stroke-linecap="round"/>
<path d="M328 28C328 14.7452 320.837 4 312 4C303.163 4 296 14.7452 296 28C296 41.2548 303.163 52 312 52" stroke="url(#paint30_radial_33_2080)" stroke-width="8" stroke-linecap="round"/>
<path d="M360 28C360 14.7452 352.837 4 344 4C335.163 4 328 14.7452 328 28C328 41.2548 335.163 52 344 52" stroke="url(#paint31_radial_33_2080)" stroke-width="8" stroke-linecap="round"/>
<path d="M392 28C392 14.7452 384.837 4 376 4C367.163 4 360 14.7452 360 28C360 41.2548 367.163 52 376 52" stroke="url(#paint32_radial_33_2080)" stroke-width="8" stroke-linecap="round"/>
<path d="M424 28C424 14.7452 416.837 4 408 4C399.163 4 392 14.7452 392 28C392 41.2548 399.163 52 408 52" stroke="url(#paint33_radial_33_2080)" stroke-width="8" stroke-linecap="round"/>
<path d="M456 28C456 14.7452 448.837 4 440 4C431.163 4 424 14.7452 424 28C424 41.2548 431.163 52 440 52" stroke="url(#paint34_radial_33_2080)" stroke-width="8" stroke-linecap="round"/>
<path d="M488 28C488 14.7452 480.837 4 472 4C463.163 4 456 14.7452 456 28C456 41.2548 463.163 52 472 52" stroke="url(#paint35_radial_33_2080)" stroke-width="8" stroke-linecap="round"/>
<path d="M520 28C520 14.7452 512.837 4 504 4C495.163 4 488 14.7452 488 28C488 41.2548 495.163 52 504 52" stroke="url(#paint36_radial_33_2080)" stroke-width="8" stroke-linecap="round"/>
<path d="M552 28C552 14.7452 544.837 4 536 4C527.163 4 520 14.7452 520 28C520 41.2548 527.163 52 536 52" stroke="url(#paint37_radial_33_2080)" stroke-width="8" stroke-linecap="round"/>
<path d="M584 28C584 14.7452 576.837 4 568 4C559.163 4 552 14.7452 552 28C552 41.2548 559.163 52 568 52" stroke="url(#paint38_radial_33_2080)" stroke-width="8" stroke-linecap="round"/>
<path d="M616 28C616 14.7452 608.837 4 600 4C591.163 4 584 14.7452 584 28C584 41.2548 591.163 52 600 52" stroke="url(#paint39_radial_33_2080)" stroke-width="8" stroke-linecap="round"/>
<path d="M648 28C648 14.7452 640.837 4 632 4C623.163 4 616 14.7452 616 28C616 41.2548 623.163 52 632 52" stroke="url(#paint40_radial_33_2080)" stroke-width="8" stroke-linecap="round"/>
<path d="M680 28C680 14.7452 672.837 4 664 4C655.163 4 648 14.7452 648 28C648 41.2548 655.163 52 664 52" stroke="url(#paint41_radial_33_2080)" stroke-width="8" stroke-linecap="round"/>
<path d="M712 28C712 14.7452 704.837 4 696 4C687.163 4 680 14.7452 680 28C680 41.2548 687.163 52 696 52" stroke="url(#paint42_radial_33_2080)" stroke-width="8" stroke-linecap="round"/>
<path d="M744 28C744 14.7452 736.837 4 728 4C719.163 4 712 14.7452 712 28C712 41.2548 719.163 52 728 52" stroke="url(#paint43_radial_33_2080)" stroke-width="8" stroke-linecap="round"/>
<defs>
<filter id="filter0_d_33_2080" x="8" y="34" width="778" height="526" filterUnits="userSpaceOnUse" color-interpolation-filters="sRGB">
<feFlood flood-opacity="0" result="BackgroundImageFix"/>
<feColorMatrix in="SourceAlpha" type="matrix" values="0 0 0 0 0 0 0 0 0 0 0 0 0 0 0 0 0 0 127 0" result="hardAlpha"/>
<feMorphology radius="2" operator="dilate" in="SourceAlpha" result="effect1_dropShadow_33_2080"/>
<feOffset dy="6"/>
<feGaussianBlur stdDeviation="4.5"/>
<feComposite in2="hardAlpha" operator="out"/>
<feColorMatrix type="matrix" values="0 0 0 0 0 0 0 0 0 0.112357 0 0 0 0 0.17875 0 0 0 0.2 0"/>
<feBlend mode="normal" in2="BackgroundImageFix" result="effect1_dropShadow_33_2080"/>
<feBlend mode="normal" in="SourceGraphic" in2="effect1_dropShadow_33_2080" result="shape"/>
</filter>
<filter id="filter1_d_33_2080" x="0" y="26" width="778" height="526" filterUnits="userSpaceOnUse" color-interpolation-filters="sRGB">
<feFlood flood-opacity="0" result="BackgroundImageFix"/>
<feColorMatrix in="SourceAlpha" type="matrix" values="0 0 0 0 0 0 0 0 0 0 0 0 0 0 0 0 0 0 127 0" result="hardAlpha"/>
<feMorphology radius="2" operator="dilate" in="SourceAlpha" result="effect1_dropShadow_33_2080"/>
<feOffset dy="6"/>
<feGaussianBlur stdDeviation="4.5"/>
<feComposite in2="hardAlpha" operator="out"/>
<feColorMatrix type="matrix" values="0 0 0 0 0 0 0 0 0 0.112357 0 0 0 0 0.17875 0 0 0 0.2 0"/>
<feBlend mode="normal" in2="BackgroundImageFix" result="effect1_dropShadow_33_2080"/>
<feBlend mode="normal" in="SourceGraphic" in2="effect1_dropShadow_33_2080" result="shape"/>
</filter>
<radialGradient id="paint0_radial_33_2080" cx="0" cy="0" r="1" gradientUnits="userSpaceOnUse" gradientTransform="translate(53 51) rotate(90) scale(8)">
<stop offset="0.395833" stop-color="#A8B2C2"/>
<stop offset="1" stop-color="#001D2E"/>
</radialGradient>
<radialGradient id="paint1_radial_33_2080" cx="0" cy="0" r="1" gradientUnits="userSpaceOnUse" gradientTransform="translate(85 51) rotate(90) scale(8)">
<stop offset="0.395833" stop-color="#A8B2C2"/>
<stop offset="1" stop-color="#001D2E"/>
</radialGradient>
<radialGradient id="paint2_radial_33_2080" cx="0" cy="0" r="1" gradientUnits="userSpaceOnUse" gradientTransform="translate(117 51) rotate(90) scale(8)">
<stop offset="0.395833" stop-color="#A8B2C2"/>
<stop offset="1" stop-color="#001D2E"/>
</radialGradient>
<radialGradient id="paint3_radial_33_2080" cx="0" cy="0" r="1" gradientUnits="userSpaceOnUse" gradientTransform="translate(149 51) rotate(90) scale(8)">
<stop offset="0.395833" stop-color="#A8B2C2"/>
<stop offset="1" stop-color="#001D2E"/>
</radialGradient>
<radialGradient id="paint4_radial_33_2080" cx="0" cy="0" r="1" gradientUnits="userSpaceOnUse" gradientTransform="translate(181 51) rotate(90) scale(8)">
<stop offset="0.395833" stop-color="#A8B2C2"/>
<stop offset="1" stop-color="#001D2E"/>
</radialGradient>
<radialGradient id="paint5_radial_33_2080" cx="0" cy="0" r="1" gradientUnits="userSpaceOnUse" gradientTransform="translate(213 51) rotate(90) scale(8)">
<stop offset="0.395833" stop-color="#A8B2C2"/>
<stop offset="1" stop-color="#001D2E"/>
</radialGradient>
<radialGradient id="paint6_radial_33_2080" cx="0" cy="0" r="1" gradientUnits="userSpaceOnUse" gradientTransform="translate(245 51) rotate(90) scale(8)">
<stop offset="0.395833" stop-color="#A8B2C2"/>
<stop offset="1" stop-color="#001D2E"/>
</radialGradient>
<radialGradient id="paint7_radial_33_2080" cx="0" cy="0" r="1" gradientUnits="userSpaceOnUse" gradientTransform="translate(277 51) rotate(90) scale(8)">
<stop offset="0.395833" stop-color="#A8B2C2"/>
<stop offset="1" stop-color="#001D2E"/>
</radialGradient>
<radialGradient id="paint8_radial_33_2080" cx="0" cy="0" r="1" gradientUnits="userSpaceOnUse" gradientTransform="translate(309 51) rotate(90) scale(8)">
<stop offset="0.395833" stop-color="#A8B2C2"/>
<stop offset="1" stop-color="#001D2E"/>
</radialGradient>
<radialGradient id="paint9_radial_33_2080" cx="0" cy="0" r="1" gradientUnits="userSpaceOnUse" gradientTransform="translate(341 51) rotate(90) scale(8)">
<stop offset="0.395833" stop-color="#A8B2C2"/>
<stop offset="1" stop-color="#001D2E"/>
</radialGradient>
<radialGradient id="paint10_radial_33_2080" cx="0" cy="0" r="1" gradientUnits="userSpaceOnUse" gradientTransform="translate(373 51) rotate(90) scale(8)">
<stop offset="0.395833" stop-color="#A8B2C2"/>
<stop offset="1" stop-color="#001D2E"/>
</radialGradient>
<radialGradient id="paint11_radial_33_2080" cx="0" cy="0" r="1" gradientUnits="userSpaceOnUse" gradientTransform="translate(405 51) rotate(90) scale(8)">
<stop offset="0.395833" stop-color="#A8B2C2"/>
<stop offset="1" stop-color="#001D2E"/>
</radialGradient>
<radialGradient id="paint12_radial_33_2080" cx="0" cy="0" r="1" gradientUnits="userSpaceOnUse" gradientTransform="translate(437 51) rotate(90) scale(8)">
<stop offset="0.395833" stop-color="#A8B2C2"/>
<stop offset="1" stop-color="#001D2E"/>
</radialGradient>
<radialGradient id="paint13_radial_33_2080" cx="0" cy="0" r="1" gradientUnits="userSpaceOnUse" gradientTransform="translate(469 51) rotate(90) scale(8)">
<stop offset="0.395833" stop-color="#A8B2C2"/>
<stop offset="1" stop-color="#001D2E"/>
</radialGradient>
<radialGradient id="paint14_radial_33_2080" cx="0" cy="0" r="1" gradientUnits="userSpaceOnUse" gradientTransform="translate(501 51) rotate(90) scale(8)">
<stop offset="0.395833" stop-color="#A8B2C2"/>
<stop offset="1" stop-color="#001D2E"/>
</radialGradient>
<radialGradient id="paint15_radial_33_2080" cx="0" cy="0" r="1" gradientUnits="userSpaceOnUse" gradientTransform="translate(533 51) rotate(90) scale(8)">
<stop offset="0.395833" stop-color="#A8B2C2"/>
<stop offset="1" stop-color="#001D2E"/>
</radialGradient>
<radialGradient id="paint16_radial_33_2080" cx="0" cy="0" r="1" gradientUnits="userSpaceOnUse" gradientTransform="translate(565 51) rotate(90) scale(8)">
<stop offset="0.395833" stop-color="#A8B2C2"/>
<stop offset="1" stop-color="#001D2E"/>
</radialGradient>
<radialGradient id="paint17_radial_33_2080" cx="0" cy="0" r="1" gradientUnits="userSpaceOnUse" gradientTransform="translate(597 51) rotate(90) scale(8)">
<stop offset="0.395833" stop-color="#A8B2C2"/>
<stop offset="1" stop-color="#001D2E"/>
</radialGradient>
<radialGradient id="paint18_radial_33_2080" cx="0" cy="0" r="1" gradientUnits="userSpaceOnUse" gradientTransform="translate(629 51) rotate(90) scale(8)">
<stop offset="0.395833" stop-color="#A8B2C2"/>
<stop offset="1" stop-color="#001D2E"/>
</radialGradient>
<radialGradient id="paint19_radial_33_2080" cx="0" cy="0" r="1" gradientUnits="userSpaceOnUse" gradientTransform="translate(661 51) rotate(90) scale(8)">
<stop offset="0.395833" stop-color="#A8B2C2"/>
<stop offset="1" stop-color="#001D2E"/>
</radialGradient>
<radialGradient id="paint20_radial_33_2080" cx="0" cy="0" r="1" gradientUnits="userSpaceOnUse" gradientTransform="translate(693 51) rotate(90) scale(8)">
<stop offset="0.395833" stop-color="#A8B2C2"/>
<stop offset="1" stop-color="#001D2E"/>
</radialGradient>
<radialGradient id="paint21_radial_33_2080" cx="0" cy="0" r="1" gradientUnits="userSpaceOnUse" gradientTransform="translate(725 51) rotate(90) scale(8)">
<stop offset="0.395833" stop-color="#A8B2C2"/>
<stop offset="1" stop-color="#001D2E"/>
</radialGradient>
<radialGradient id="paint22_radial_33_2080" cx="0" cy="0" r="1" gradientUnits="userSpaceOnUse" gradientTransform="translate(56 28) rotate(90) scale(24 16)">
<stop offset="0.395833" stop-color="#A8B2C2"/>
<stop offset="1" stop-color="#001D2E"/>
</radialGradient>
<radialGradient id="paint23_radial_33_2080" cx="0" cy="0" r="1" gradientUnits="userSpaceOnUse" gradientTransform="translate(88 28) rotate(90) scale(24 16)">
<stop offset="0.395833" stop-color="#A8B2C2"/>
<stop offset="1" stop-color="#001D2E"/>
</radialGradient>
<radialGradient id="paint24_radial_33_2080" cx="0" cy="0" r="1" gradientUnits="userSpaceOnUse" gradientTransform="translate(120 28) rotate(90) scale(24 16)">
<stop offset="0.395833" stop-color="#A8B2C2"/>
<stop offset="1" stop-color="#001D2E"/>
</radialGradient>
<radialGradient id="paint25_radial_33_2080" cx="0" cy="0" r="1" gradientUnits="userSpaceOnUse" gradientTransform="translate(152 28) rotate(90) scale(24 16)">
<stop offset="0.395833" stop-color="#A8B2C2"/>
<stop offset="1" stop-color="#001D2E"/>
</radialGradient>
<radialGradient id="paint26_radial_33_2080" cx="0" cy="0" r="1" gradientUnits="userSpaceOnUse" gradientTransform="translate(184 28) rotate(90) scale(24 16)">
<stop offset="0.395833" stop-color="#A8B2C2"/>
<stop offset="1" stop-color="#001D2E"/>
</radialGradient>
<radialGradient id="paint27_radial_33_2080" cx="0" cy="0" r="1" gradientUnits="userSpaceOnUse" gradientTransform="translate(216 28) rotate(90) scale(24 16)">
<stop offset="0.395833" stop-color="#A8B2C2"/>
<stop offset="1" stop-color="#001D2E"/>
</radialGradient>
<radialGradient id="paint28_radial_33_2080" cx="0" cy="0" r="1" gradientUnits="userSpaceOnUse" gradientTransform="translate(248 28) rotate(90) scale(24 16)">
<stop offset="0.395833" stop-color="#A8B2C2"/>
<stop offset="1" stop-color="#001D2E"/>
</radialGradient>
<radialGradient id="paint29_radial_33_2080" cx="0" cy="0" r="1" gradientUnits="userSpaceOnUse" gradientTransform="translate(280 28) rotate(90) scale(24 16)">
<stop offset="0.395833" stop-color="#A8B2C2"/>
<stop offset="1" stop-color="#001D2E"/>
</radialGradient>
<radialGradient id="paint30_radial_33_2080" cx="0" cy="0" r="1" gradientUnits="userSpaceOnUse" gradientTransform="translate(312 28) rotate(90) scale(24 16)">
<stop offset="0.395833" stop-color="#A8B2C2"/>
<stop offset="1" stop-color="#001D2E"/>
</radialGradient>
<radialGradient id="paint31_radial_33_2080" cx="0" cy="0" r="1" gradientUnits="userSpaceOnUse" gradientTransform="translate(344 28) rotate(90) scale(24 16)">
<stop offset="0.395833" stop-color="#A8B2C2"/>
<stop offset="1" stop-color="#001D2E"/>
</radialGradient>
<radialGradient id="paint32_radial_33_2080" cx="0" cy="0" r="1" gradientUnits="userSpaceOnUse" gradientTransform="translate(376 28) rotate(90) scale(24 16)">
<stop offset="0.395833" stop-color="#A8B2C2"/>
<stop offset="1" stop-color="#001D2E"/>
</radialGradient>
<radialGradient id="paint33_radial_33_2080" cx="0" cy="0" r="1" gradientUnits="userSpaceOnUse" gradientTransform="translate(408 28) rotate(90) scale(24 16)">
<stop offset="0.395833" stop-color="#A8B2C2"/>
<stop offset="1" stop-color="#001D2E"/>
</radialGradient>
<radialGradient id="paint34_radial_33_2080" cx="0" cy="0" r="1" gradientUnits="userSpaceOnUse" gradientTransform="translate(440 28) rotate(90) scale(24 16)">
<stop offset="0.395833" stop-color="#A8B2C2"/>
<stop offset="1" stop-color="#001D2E"/>
</radialGradient>
<radialGradient id="paint35_radial_33_2080" cx="0" cy="0" r="1" gradientUnits="userSpaceOnUse" gradientTransform="translate(472 28) rotate(90) scale(24 16)">
<stop offset="0.395833" stop-color="#A8B2C2"/>
<stop offset="1" stop-color="#001D2E"/>
</radialGradient>
<radialGradient id="paint36_radial_33_2080" cx="0" cy="0" r="1" gradientUnits="userSpaceOnUse" gradientTransform="translate(504 28) rotate(90) scale(24 16)">
<stop offset="0.395833" stop-color="#A8B2C2"/>
<stop offset="1" stop-color="#001D2E"/>
</radialGradient>
<radialGradient id="paint37_radial_33_2080" cx="0" cy="0" r="1" gradientUnits="userSpaceOnUse" gradientTransform="translate(536 28) rotate(90) scale(24 16)">
<stop offset="0.395833" stop-color="#A8B2C2"/>
<stop offset="1" stop-color="#001D2E"/>
</radialGradient>
<radialGradient id="paint38_radial_33_2080" cx="0" cy="0" r="1" gradientUnits="userSpaceOnUse" gradientTransform="translate(568 28) rotate(90) scale(24 16)">
<stop offset="0.395833" stop-color="#A8B2C2"/>
<stop offset="1" stop-color="#001D2E"/>
</radialGradient>
<radialGradient id="paint39_radial_33_2080" cx="0" cy="0" r="1" gradientUnits="userSpaceOnUse" gradientTransform="translate(600 28) rotate(90) scale(24 16)">
<stop offset="0.395833" stop-color="#A8B2C2"/>
<stop offset="1" stop-color="#001D2E"/>
</radialGradient>
<radialGradient id="paint40_radial_33_2080" cx="0" cy="0" r="1" gradientUnits="userSpaceOnUse" gradientTransform="translate(632 28) rotate(90) scale(24 16)">
<stop offset="0.395833" stop-color="#A8B2C2"/>
<stop offset="1" stop-color="#001D2E"/>
</radialGradient>
<radialGradient id="paint41_radial_33_2080" cx="0" cy="0" r="1" gradientUnits="userSpaceOnUse" gradientTransform="translate(664 28) rotate(90) scale(24 16)">
<stop offset="0.395833" stop-color="#A8B2C2"/>
<stop offset="1" stop-color="#001D2E"/>
</radialGradient>
<radialGradient id="paint42_radial_33_2080" cx="0" cy="0" r="1" gradientUnits="userSpaceOnUse" gradientTransform="translate(696 28) rotate(90) scale(24 16)">
<stop offset="0.395833" stop-color="#A8B2C2"/>
<stop offset="1" stop-color="#001D2E"/>
</radialGradient>
<radialGradient id="paint43_radial_33_2080" cx="0" cy="0" r="1" gradientUnits="userSpaceOnUse" gradientTransform="translate(728 28) rotate(90) scale(24 16)">
<stop offset="0.395833" stop-color="#A8B2C2"/>
<stop offset="1" stop-color="#001D2E"/>
</radialGradient>
</defs>
</svg>
